<svg width="24" height="24" viewBox="0 0 24 24" fill="none" xmlns="http://www.w3.org/2000/svg">
<path d="M11.919 7.00809C11.947 7.00809 11.973 7.00009 12.001 7.00009C13.523 7.00009 14.767 8.13809 14.961 9.60709L18.326 5.62409C17.601 4.45609 16.599 3.51109 15.426 2.88009L11.919 7.00809ZM12.001 13.0001C10.48 13.0001 9.23701 11.8641 9.04101 10.3961L5.98301 13.9951C6.40101 14.6761 6.86401 15.3371 7.32701 15.9881C7.67601 16.4801 8.01701 16.9641 8.33501 17.4491L12.103 12.9891C12.068 12.9911 12.036 13.0001 12.001 13.0001ZM9.38001 19.3111C9.65001 19.9171 9.85301 20.5401 9.94501 21.1991C10.087 22.2261 10.971 23.0001 12.002 23.0001C13.033 23.0001 13.915 22.2331 14.053 21.2161C14.311 19.3141 15.459 17.6981 16.674 15.9881C18.405 13.5511 20.186 11.0301 19.232 7.65009L9.38001 19.3111ZM9.84501 6.36009L13.422 2.14909C13.101 2.08409 12.777 2.03109 12.446 2.01209C10.475 1.90109 8.60401 2.54209 7.12501 3.81209L9.84501 6.36009ZM5.79201 5.30509C4.96201 6.53609 4.50101 7.99909 4.50101 9.50009C4.50101 10.4121 4.69401 11.2581 5.00201 12.0611L8.54901 7.88609L5.79201 5.30509Z" fill="url(#paint0_linear_1_1434)"/>
<defs>
<linearGradient id="paint0_linear_1_1434" x1="9.37528" y1="-6.75038" x2="26.7044" y2="-1.44642" gradientUnits="userSpaceOnUse">
<stop stop-color="#FD636B"/>
<stop offset="1" stop-color="#FFD200"/>
</linearGradient>
</defs>
</svg>
