<svg width="50" height="50" viewBox="0 0 50 50" fill="none" xmlns="http://www.w3.org/2000/svg">
<rect width="50" height="50" rx="25" fill="white"/>
<path d="M20.3711 19L18.7969 20.5742C17.9336 21.4375 17.7461 22.7812 18.3633 23.8359C19.0508 25.0156 19.6133 25.8867 21.9687 28.2383C24.3203 30.5938 24.9609 30.9141 26.1211 31.5938C27.1797 32.2109 28.5195 32.0234 29.3789 31.1602L30.957 29.5859L27.9101 26.543L26.6719 27.7812C26.5234 27.7148 26.3008 27.5977 26.043 27.4336C25.5117 27.0938 24.832 26.5742 24.2344 25.9727C23.6328 25.375 23.0469 24.6289 22.6406 24.0273C22.4414 23.7305 22.2812 23.4609 22.1953 23.2852C22.1914 23.2773 22.1914 23.2773 22.1875 23.2695L23.4141 22.043L20.3711 19ZM20.3711 20.4141L22 22.043L21.2851 22.7617C21.1367 22.9102 21.1211 23.0742 21.125 23.168C21.125 23.2578 21.1406 23.3203 21.1562 23.3789C21.1914 23.5 21.2383 23.6055 21.2969 23.7305C21.418 23.9727 21.5937 24.2617 21.8125 24.5898C22.25 25.2383 22.8672 26.0234 23.5234 26.6836C24.1836 27.3398 24.9101 27.8945 25.5078 28.2734C25.8047 28.4648 26.0664 28.6094 26.2891 28.707C26.4023 28.7578 26.5039 28.7969 26.625 28.8203C26.6836 28.832 26.75 28.8398 26.8398 28.832C26.9297 28.8281 27.0703 28.7969 27.1953 28.6719L27.9101 27.957L29.543 29.5859L28.6719 30.457C28.1289 31 27.2891 31.1172 26.625 30.7305C25.4453 30.0391 24.9961 29.8555 22.6719 27.5352C20.3516 25.2109 19.9062 24.4961 19.2266 23.332C18.8398 22.668 18.957 21.8281 19.5 21.2852L20.3711 20.4141Z" fill="url(#paint0_linear_8_2)"/>
<defs>
<linearGradient id="paint0_linear_8_2" x1="22.2114" y1="13.6015" x2="36.0437" y2="19.5296" gradientUnits="userSpaceOnUse">
<stop stop-color="#FD636B"/>
<stop offset="1" stop-color="#FFD200"/>
</linearGradient>
</defs>
</svg>
