<svg width="16" height="16" viewBox="0 0 16 16" fill="none" xmlns="http://www.w3.org/2000/svg">
<path d="M7.99994 0C7.62975 0 7.38456 0.245193 7.38456 0.615385V1.28846C5.64177 1.58173 4.30764 3.09856 4.30764 4.92308V8C4.30764 8.49279 1.23071 10.9543 1.23071 11.6923C1.23071 12.738 3.93744 13.5385 7.99994 13.5385C12.0624 13.5385 14.7692 12.738 14.7692 11.6923C14.7692 10.9543 11.6922 8.49279 11.6922 8V4.92308C11.6922 3.09856 10.3581 1.58173 8.61533 1.28846V0.615385C8.61533 0.245193 8.37014 0 7.99994 0ZM6.96148 14.2115C6.83888 14.3966 6.76917 14.524 6.76917 14.7692C6.76917 15.4471 7.32206 16 7.99994 16C8.67783 16 9.23071 15.4471 9.23071 14.7692C9.23071 14.524 9.161 14.3966 9.0384 14.2115H6.96148Z" fill="white"/>
</svg>
